%TF.GenerationSoftware,KiCad,Pcbnew,(6.0.2)*%
%TF.CreationDate,2022-04-05T22:12:57+02:00*%
%TF.ProjectId,BME68x Adaptor,424d4536-3878-4204-9164-6170746f722e,rev?*%
%TF.SameCoordinates,Original*%
%TF.FileFunction,Copper,L1,Top*%
%TF.FilePolarity,Positive*%
%FSLAX46Y46*%
G04 Gerber Fmt 4.6, Leading zero omitted, Abs format (unit mm)*
G04 Created by KiCad (PCBNEW (6.0.2)) date 2022-04-05 22:12:57*
%MOMM*%
%LPD*%
G01*
G04 APERTURE LIST*
G04 Aperture macros list*
%AMRoundRect*
0 Rectangle with rounded corners*
0 $1 Rounding radius*
0 $2 $3 $4 $5 $6 $7 $8 $9 X,Y pos of 4 corners*
0 Add a 4 corners polygon primitive as box body*
4,1,4,$2,$3,$4,$5,$6,$7,$8,$9,$2,$3,0*
0 Add four circle primitives for the rounded corners*
1,1,$1+$1,$2,$3*
1,1,$1+$1,$4,$5*
1,1,$1+$1,$6,$7*
1,1,$1+$1,$8,$9*
0 Add four rect primitives between the rounded corners*
20,1,$1+$1,$2,$3,$4,$5,0*
20,1,$1+$1,$4,$5,$6,$7,0*
20,1,$1+$1,$6,$7,$8,$9,0*
20,1,$1+$1,$8,$9,$2,$3,0*%
G04 Aperture macros list end*
%TA.AperFunction,SMDPad,CuDef*%
%ADD10RoundRect,0.237500X-0.237500X0.300000X-0.237500X-0.300000X0.237500X-0.300000X0.237500X0.300000X0*%
%TD*%
%TA.AperFunction,SMDPad,CuDef*%
%ADD11RoundRect,0.237500X-0.237500X0.250000X-0.237500X-0.250000X0.237500X-0.250000X0.237500X0.250000X0*%
%TD*%
%TA.AperFunction,SMDPad,CuDef*%
%ADD12RoundRect,0.125000X0.125000X0.137500X-0.125000X0.137500X-0.125000X-0.137500X0.125000X-0.137500X0*%
%TD*%
%TA.AperFunction,ComponentPad*%
%ADD13R,1.700000X1.700000*%
%TD*%
%TA.AperFunction,ComponentPad*%
%ADD14O,1.700000X1.700000*%
%TD*%
%TA.AperFunction,ViaPad*%
%ADD15C,0.800000*%
%TD*%
%TA.AperFunction,Conductor*%
%ADD16C,0.250000*%
%TD*%
G04 APERTURE END LIST*
D10*
%TO.P,C2,1*%
%TO.N,+3V3*%
X145200000Y-91137500D03*
%TO.P,C2,2*%
%TO.N,GND*%
X145200000Y-92862500D03*
%TD*%
%TO.P,C1,1*%
%TO.N,+3V3*%
X142600000Y-91137500D03*
%TO.P,C1,2*%
%TO.N,GND*%
X142600000Y-92862500D03*
%TD*%
D11*
%TO.P,R3,1*%
%TO.N,+3V3*%
X140000000Y-91087500D03*
%TO.P,R3,2*%
%TO.N,/CS#*%
X140000000Y-92912500D03*
%TD*%
%TO.P,R1,1*%
%TO.N,+3V3*%
X137400000Y-91087500D03*
%TO.P,R1,2*%
%TO.N,/SDI*%
X137400000Y-92912500D03*
%TD*%
%TO.P,R2,1*%
%TO.N,+3V3*%
X134800000Y-91087500D03*
%TO.P,R2,2*%
%TO.N,/SCK*%
X134800000Y-92912500D03*
%TD*%
D12*
%TO.P,U1,1,GND*%
%TO.N,GND*%
X141200000Y-85887500D03*
%TO.P,U1,2,CSB*%
%TO.N,/CS#*%
X140400000Y-85887500D03*
%TO.P,U1,3,SDI*%
%TO.N,/SDI*%
X139600000Y-85887500D03*
%TO.P,U1,4,SCK*%
%TO.N,/SCK*%
X138800000Y-85887500D03*
%TO.P,U1,5,SDO*%
%TO.N,/SDO*%
X138800000Y-83512500D03*
%TO.P,U1,6,VDDIO*%
%TO.N,+3V3*%
X139600000Y-83512500D03*
%TO.P,U1,7,GND*%
%TO.N,GND*%
X140400000Y-83512500D03*
%TO.P,U1,8,VDD*%
%TO.N,+3V3*%
X141200000Y-83512500D03*
%TD*%
D13*
%TO.P,J1,1,Pin_1*%
%TO.N,+3V3*%
X146350000Y-98250000D03*
D14*
%TO.P,J1,2,Pin_2*%
%TO.N,GND*%
X143810000Y-98250000D03*
%TO.P,J1,3,Pin_3*%
%TO.N,/CS#*%
X141270000Y-98250000D03*
%TO.P,J1,4,Pin_4*%
%TO.N,/SDI*%
X138730000Y-98250000D03*
%TO.P,J1,5,Pin_5*%
%TO.N,/SCK*%
X136190000Y-98250000D03*
%TO.P,J1,6,Pin_6*%
%TO.N,/SDO*%
X133650000Y-98250000D03*
%TD*%
D15*
%TO.N,+3V3*%
X146350000Y-89650000D03*
X134800000Y-89600000D03*
X140000000Y-89600000D03*
X137400000Y-89600000D03*
%TO.N,GND*%
X142600000Y-94300000D03*
X141700000Y-87400000D03*
X145200000Y-94300000D03*
X140400000Y-82300000D03*
%TD*%
D16*
%TO.N,+3V3*%
X145200000Y-89700000D02*
X145150000Y-89650000D01*
X139900000Y-81500000D02*
X141200000Y-81500000D01*
X145400000Y-81500000D02*
X146350000Y-82450000D01*
X145150000Y-89650000D02*
X143050000Y-89650000D01*
X139600000Y-83512500D02*
X139600000Y-81800000D01*
X141200000Y-83512500D02*
X141200000Y-81500000D01*
X134800000Y-91087500D02*
X134800000Y-89600000D01*
X146350000Y-89650000D02*
X146350000Y-98250000D01*
X137400000Y-91087500D02*
X137400000Y-89600000D01*
X141200000Y-81500000D02*
X145400000Y-81500000D01*
X139600000Y-81800000D02*
X139900000Y-81500000D01*
X146350000Y-82450000D02*
X146350000Y-89650000D01*
X143050000Y-89650000D02*
X142600000Y-90100000D01*
X140000000Y-91087500D02*
X140000000Y-89600000D01*
X142600000Y-90100000D02*
X142600000Y-91137500D01*
X145200000Y-91137500D02*
X145200000Y-89700000D01*
X146350000Y-89650000D02*
X145150000Y-89650000D01*
%TO.N,GND*%
X141700000Y-87400000D02*
X141200000Y-86900000D01*
X140400000Y-83512500D02*
X140400000Y-82300000D01*
X145200000Y-92862500D02*
X145200000Y-94300000D01*
X145200000Y-92862500D02*
X145200000Y-94100000D01*
X141200000Y-86900000D02*
X141200000Y-85887500D01*
X142600000Y-94300000D02*
X142600000Y-92862500D01*
%TO.N,/SDO*%
X138400000Y-81500000D02*
X138800000Y-81900000D01*
X133650000Y-82450000D02*
X134600000Y-81500000D01*
X134600000Y-81500000D02*
X138400000Y-81500000D01*
X138800000Y-81900000D02*
X138800000Y-83512500D01*
X133650000Y-98250000D02*
X133650000Y-82450000D01*
%TO.N,/SCK*%
X136190000Y-94610000D02*
X136190000Y-89510000D01*
X138800000Y-86900000D02*
X138800000Y-85887500D01*
X136190000Y-89510000D02*
X138800000Y-86900000D01*
X136190000Y-98250000D02*
X136190000Y-94610000D01*
X135210000Y-94610000D02*
X136190000Y-94610000D01*
X134800000Y-92912500D02*
X134800000Y-94200000D01*
X134800000Y-94200000D02*
X135210000Y-94610000D01*
%TO.N,/SDI*%
X138730000Y-94530000D02*
X138730000Y-94970000D01*
X139600000Y-88400000D02*
X138730000Y-89270000D01*
X138660000Y-94600000D02*
X138730000Y-94530000D01*
X139600000Y-85887500D02*
X139600000Y-88400000D01*
X137400000Y-94200000D02*
X137800000Y-94600000D01*
X137800000Y-94600000D02*
X138660000Y-94600000D01*
X138730000Y-89270000D02*
X138730000Y-94530000D01*
X137400000Y-92912500D02*
X137400000Y-94200000D01*
X138730000Y-94970000D02*
X138730000Y-98250000D01*
%TO.N,/CS#*%
X140400000Y-94600000D02*
X141200000Y-94600000D01*
X140400000Y-85887500D02*
X140400000Y-88400000D01*
X140400000Y-88400000D02*
X141270000Y-89270000D01*
X141270000Y-94530000D02*
X141270000Y-98250000D01*
X141200000Y-94600000D02*
X141270000Y-94530000D01*
X140000000Y-94200000D02*
X140400000Y-94600000D01*
X140000000Y-92912500D02*
X140000000Y-94200000D01*
X141270000Y-89270000D02*
X141270000Y-94530000D01*
%TD*%
M02*
